# xmcd CD database file
#
# Track frame offsets:
#	150
#	23934
#	41641
#	71981
#	90885
#	130440
#	145018
#	164096
#	182736
#	258534
#
# Disc length: 3726 seconds
#
# Revision: 0
# Processed by: cddbd v1.5.2PL0 Copyright (c) Steve Scherf et al.
# Submitted via: CDex 1.70beta2
#
DISCID=910e8c0a
DTITLE=Li'l Andy and Karraoke Country - Cdn. - Tombstones and Ar
DYEAR=2003
DGENRE=Country
TTITLE0=Video Poker Blues
TTITLE1=Code To the Digital Woman
TTITLE2=Sixteen Tons(Bone and Blood)
TTITLE3=The Y2K Rag
TTITLE4=You, Me and TV
TTITLE5=The Night That Oprah Died
TTITLE6=Wheelchair Man
TTITLE7=Sega Exodus
TTITLE8=The Sun's Comin' Up(But My Bottle's Goin" Down
TTITLE9=Frontal Labotomy Kind of Day
EXTD=YEAR: 2003
EXTT0=
EXTT1=
EXTT2=
EXTT3=
EXTT4=
EXTT5=
EXTT6=
EXTT7=
EXTT8=
EXTT9=
PLAYORDER=
